<svg xmlns="http://www.w3.org/2000/svg" width="160" height="30.729"><g data-name="Group 882"><g data-name="Group 1" fill="#00377a"><path data-name="Path 13" d="M57.915 23.568h-.158a.807.807 0 0 1-.787-.787v-1.26a5.286 5.286 0 0 1-4.566 2.309 6.3 6.3 0 0 1 .053-12.6 5.369 5.369 0 0 1 4.566 2.257v-1.203a.807.807 0 0 1 .787-.787h.153a.807.807 0 0 1 .787.787v10.5a.9.9 0 0 1-.835.784zm-5.459-1.47a4.349 4.349 0 0 0 4.567-4.564 4.449 4.449 0 0 0-4.566-4.514 4.284 4.284 0 0 0-4.461 4.514 4.418 4.418 0 0 0 4.461 4.566z"/><path data-name="Path 14" d="M72.716 13.281l-7.925 8.555h7.348a.807.807 0 0 1 .787.787v.1a.807.807 0 0 1-.787.787h-8.87a.807.807 0 0 1-.787-.787v-.472a.674.674 0 0 1 .21-.525l7.768-8.555h-6.771a.807.807 0 0 1-.787-.787v-.1a.807.807 0 0 1 .787-.787h8.4a.807.807 0 0 1 .787.787v.42a.559.559 0 0 1-.16.577z"/><path data-name="Path 15" d="M75.97 17.48a5.912 5.912 0 0 1 6.089-6.246c3.412 0 5.931 2.414 5.931 6.246a.807.807 0 0 1-.787.787h-9.448a4.209 4.209 0 0 0 4.356 3.832 4.307 4.307 0 0 0 3.517-1.68.785.785 0 0 1 .787-.315l.158.053a.863.863 0 0 1 .63.945.746.746 0 0 1-.105.315 6.212 6.212 0 0 1-11.127-3.936zm10.235-.787a4 4 0 0 0-4.146-3.727 4.274 4.274 0 0 0-4.356 3.727z"/><path data-name="Path 16" d="M98.854 12.441a.785.785 0 0 1-.892.682h-.1a5.842 5.842 0 0 0-.892-.1c-2.467 0-3.464 2.887-3.464 6.089v3.674a.807.807 0 0 1-.787.787h-.157a.807.807 0 0 1-.787-.787v-10.5a.807.807 0 0 1 .787-.787h.157a.807.807 0 0 1 .787.787v1.942c.577-2.047 1.68-2.992 3.464-2.992a5.605 5.605 0 0 1 1.312.158.792.792 0 0 1 .577.84z"/><path data-name="Path 17" d="M103.053 5.776a1.261 1.261 0 1 1-1.312 1.26 1.256 1.256 0 0 1 1.312-1.26zm.052 17.793h-.1a.807.807 0 0 1-.787-.787v-10.5a.807.807 0 0 1 .787-.787h.1a.807.807 0 0 1 .787.787v10.5a.807.807 0 0 1-.787.787z"/><path data-name="Path 18" d="M117.907 21.522a.824.824 0 0 1 0 1.155c-.053.053-.1.1-.157.1a6.6 6.6 0 0 1-3.569 1.05 6.272 6.272 0 1 1 0-12.544 7.175 7.175 0 0 1 3.569 1 .828.828 0 0 1 .262 1.1c-.053.052-.053.1-.1.157l-.1.1a.794.794 0 0 1-1 .1 5.07 5.07 0 0 0-2.624-.735 4.593 4.593 0 1 0 0 9.185 5.071 5.071 0 0 0 2.624-.735.794.794 0 0 1 1 .1z"/><path data-name="Path 19" d="M132.76 23.569h-.157a.807.807 0 0 1-.787-.787v-1.26a5.285 5.285 0 0 1-4.566 2.309 6.027 6.027 0 0 1-6.141-6.3 5.953 5.953 0 0 1 6.141-6.246 5.369 5.369 0 0 1 4.566 2.257v-1.253a.807.807 0 0 1 .787-.787h.157a.807.807 0 0 1 .787.787v10.5a.773.773 0 0 1-.787.787zm-5.459-1.47a4.349 4.349 0 0 0 4.566-4.566 4.449 4.449 0 0 0-4.566-4.514 4.284 4.284 0 0 0-4.461 4.514 4.417 4.417 0 0 0 4.461 4.566z"/><path data-name="Path 20" d="M145.462 12.441a.785.785 0 0 1-.892.682h-.1a5.841 5.841 0 0 0-.892-.1c-2.467 0-3.464 2.887-3.464 6.089v3.674a.807.807 0 0 1-.787.787h-.157a.807.807 0 0 1-.787-.787v-10.5a.807.807 0 0 1 .787-.787h.157a.807.807 0 0 1 .787.787v1.942c.577-2.047 1.68-2.992 3.464-2.992a5.605 5.605 0 0 1 1.312.158.792.792 0 0 1 .577.84z"/><path data-name="Path 21" d="M159.213 23.569h-.153a.807.807 0 0 1-.787-.787v-1.26a5.286 5.286 0 0 1-4.566 2.309 6.027 6.027 0 0 1-6.141-6.3 5.953 5.953 0 0 1 6.141-6.246 5.369 5.369 0 0 1 4.566 2.257V5.826a.807.807 0 0 1 .787-.787h.157a.807.807 0 0 1 .787.787v16.955a.807.807 0 0 1-.791.788zm-5.459-1.47a4.349 4.349 0 0 0 4.566-4.566 4.449 4.449 0 0 0-4.566-4.514 4.284 4.284 0 0 0-4.461 4.514 4.418 4.418 0 0 0 4.461 4.566z"/></g><g data-name="Group 2"><path data-name="Path 22" d="M42.746 30.707h-6.718a3.037 3.037 0 0 1-2.572-1.417L15.979 1.315a.906.906 0 0 1 .262-1.207.78.78 0 0 1 .472-.1h3.412a9.164 9.164 0 0 1 7.715 4.251l15.641 25.088a.858.858 0 0 1-.262 1.207.641.641 0 0 1-.473.153z" fill="#00377a"/><path data-name="Path 23" d="M26.476 21.628a11.787 11.787 0 0 0-8.817-5.458l-2.992-.262a1.821 1.821 0 0 1-1.364-.84l-1.364-2.2a.852.852 0 0 0-1.155-.262.633.633 0 0 0-.262.262L2.228 26.089l-2.1 3.307a.906.906 0 0 0 .262 1.207.535.535 0 0 0 .472.1h6.719a3.037 3.037 0 0 0 2.572-1.417l5.091-8.083a35.541 35.541 0 0 1 6.246-.682 9.2 9.2 0 0 1 4.986 1.107z" fill="#549344"/><path data-name="Path 24" d="M2.227 26.088l-2.1 3.307a.906.906 0 0 0 .262 1.207.78.78 0 0 0 .472.1h6.72a3.037 3.037 0 0 0 2.572-1.417l5.09-8.078a41.1 41.1 0 0 0-13.016 4.881z" fill="#336e27"/></g></g></svg>